# xmcd
#
# Track frame offsets: 
#        183
#        13953
#        28005
#        41310
#        53080
#        66353
#        79890
#        91235
#        106133
#        118755
#        132030
#        147790
#        161828
#        174438
#        188215
#        201995
#        216615
#        231145
#        246478
#        260825
#        274053
#        286495
#        299390
#        311760
#
# Disc length: 4323 seconds
#
# Revision: 1
# Processed by: cddbd v1.5.2PL0 Copyright (c) Steve Scherf et al.
# Submitted via: ExactAudioCopy v0.99pb4
#
DISCID=7610e118
DTITLE=Sonny Boy Williamson - Volume 1: 1937-1939
DYEAR=1992
DGENRE=Blues
TTITLE0=Good Morning School Girl
TTITLE1=Blue Bird Blues
TTITLE2=Jackson Blues
TTITLE3=Got The Bottle Up And Gone
TTITLE4=Sugar Mama
TTITLE5=Skinny Woman
TTITLE6=Worried Me Blues
TTITLE7=Collector Man Blues
TTITLE8=Early In The Morning
TTITLE9=I'm Tired Trucking My Blues Away
TTITLE10=Decoration Blues
TTITLE11=Down South
TTITLE12=You've Been Foolin' Around Town
TTITLE13=Honey Bee Blues
TTITLE14=Lord, Oh Lord Blues
TTITLE15=Low Down Ways
TTITLE16=Susie-Q
TTITLE17=The Right Kind Of Life
TTITLE18=Goodbye Red
TTITLE19=Thinking My Way Blues
TTITLE20=Good Gal Blues
TTITLE21=Tell Me Baby
TTITLE22=Life Time Blues
TTITLE23=Good Gravy
EXTD=
EXTT0=
EXTT1=
EXTT2=
EXTT3=
EXTT4=
EXTT5=
EXTT6=
EXTT7=
EXTT8=
EXTT9=
EXTT10=
EXTT11=
EXTT12=
EXTT13=
EXTT14=
EXTT15=
EXTT16=
EXTT17=
EXTT18=
EXTT19=
EXTT20=
EXTT21=
EXTT22=
EXTT23=
PLAYORDER=
